<svg xmlns="http://www.w3.org/2000/svg"  viewBox="0 0 96 96" width="1008px" height="1008px" baseProfile="basic"><path fill="#0fd2ff" d="M35.909,82.223c-8.257,0-16.369-2.438-23.588-7.307c-1.373-0.927-1.736-2.791-0.81-4.165	c0.928-1.374,2.791-1.735,4.165-0.81c1.762,1.188,3.587,2.208,5.461,3.058c-0.05-0.132-0.091-0.27-0.121-0.412	c-0.354-1.618,0.672-3.217,2.291-3.57c1.646-0.359,3.262-0.88,4.818-1.547c-4.152-2.085-7.419-5.755-8.907-10.348	c-0.285-0.882-0.146-1.837,0.362-2.594c-3.578-3.299-5.749-8.023-5.688-13.158c0.013-1.051,0.574-2.018,1.479-2.55	c0.129-0.076,0.263-0.142,0.398-0.196c-0.531-1.141-0.951-2.352-1.245-3.612c-1.063-4.557-0.352-9.273,1.955-12.938	c0.513-0.815,1.387-1.335,2.349-1.396c0.983-0.062,1.896,0.345,2.507,1.088c6.203,7.541,15.037,12.474,24.646,13.864	c-0.102-5.726,2.752-11.167,7.881-14.581c6.084-4.052,15.236-4.744,21.737,1.278c2.398-0.614,4.711-1.569,6.892-2.848	c1.071-0.63,2.424-0.532,3.396,0.248c0.971,0.779,1.359,2.076,0.978,3.261c-0.207,0.641-0.449,1.267-0.726,1.874	c0.817,0.038,1.606,0.409,2.158,1.066c0.859,1.021,0.94,2.489,0.197,3.599c-1.874,2.802-4.134,5.257-6.732,7.316	c0.925,14.745-7.577,29.683-22.042,38.456C52.107,79.916,43.939,82.223,35.909,82.223z M25.53,74.657	c10.055,3.058,21.1,1.564,31.078-4.488c13.04-7.909,20.514-21.407,19.04-34.388c-0.118-1.034,0.309-2.051,1.119-2.691	c-0.959-0.245-1.763-0.956-2.098-1.938c-0.299-0.875-0.172-1.809,0.29-2.553c-0.971,0.109-1.937-0.261-2.587-0.998	c-4.254-4.828-10.859-4.44-15.185-1.56c-3.169,2.109-6.333,6.559-4.824,12.155c0.25,0.927,0.041,1.918-0.562,2.665	c-0.604,0.747-1.51,1.16-2.485,1.112c-10.979-0.551-21.363-5.106-29.177-12.672c-0.186,1.399-0.114,2.878,0.229,4.346	c0.708,3.032,2.454,5.595,4.791,7.029c1.159,0.711,1.694,2.113,1.305,3.416c-0.39,1.304-1.588,2.176-2.966,2.14	c-0.922-0.028-1.845-0.132-2.759-0.306c1.443,3.551,4.609,6.281,8.583,7.07c1.359,0.27,2.357,1.437,2.414,2.821	c0.056,1.385-0.845,2.628-2.179,3.007c-0.759,0.216-1.547,0.377-2.349,0.483c2.143,2.465,5.286,3.993,8.718,4.061	c1.271,0.024,2.39,0.849,2.789,2.056c0.4,1.207-0.005,2.535-1.01,3.314C34.117,71.522,29.926,73.558,25.53,74.657z" opacity=".3"/><path fill="#0fd2ff" d="M35.91,81.219c-8.064,0-15.983-2.379-23.029-7.132c-0.916-0.618-1.157-1.861-0.54-2.776	c0.618-0.917,1.861-1.158,2.776-0.54c12.579,8.486,28.283,8.581,42.011,0.253c13.371-8.11,21.031-21.988,19.514-35.355	c-0.082-0.726,0.237-1.438,0.833-1.859c0.87-0.614,1.699-1.277,2.487-1.988c-0.729,0.14-1.465,0.256-2.208,0.348	c-0.953,0.106-1.832-0.443-2.138-1.339s0.058-1.883,0.872-2.366c0.912-0.542,1.745-1.188,2.484-1.921	c-1.299,0.434-2.624,0.781-3.971,1.04c-0.697,0.135-1.41-0.11-1.879-0.642c-4.633-5.258-11.801-4.852-16.489-1.73	c-3.444,2.293-6.883,7.139-5.235,13.248c0.167,0.618,0.028,1.278-0.374,1.776c-0.401,0.498-0.998,0.779-1.657,0.741	c-11.347-0.569-22.046-5.514-29.813-13.684c-0.619,2.038-0.687,4.326-0.159,6.583c0.769,3.292,2.679,6.082,5.241,7.655	c0.773,0.474,1.13,1.408,0.87,2.277c-0.254,0.849-1.034,1.427-1.915,1.427c-0.021,0-0.042,0-0.063-0.001	c-1.44-0.044-2.885-0.281-4.285-0.699c1.137,4.699,4.933,8.462,9.885,9.444c0.906,0.18,1.571,0.958,1.608,1.881	c0.038,0.924-0.563,1.752-1.451,2.005c-1.242,0.353-2.597,0.55-3.96,0.588c2.255,3.55,6.202,5.831,10.582,5.917	c0.848,0.017,1.593,0.566,1.859,1.371s-0.003,1.69-0.673,2.21c-3.729,2.891-8.128,4.948-12.721,5.951	c-1.076,0.234-2.146-0.448-2.381-1.527s0.448-2.146,1.527-2.381c2.438-0.532,4.815-1.405,7.036-2.575	c-4.849-1.702-8.754-5.564-10.386-10.604c-0.219-0.674-0.064-1.413,0.406-1.943c0.139-0.156,0.299-0.288,0.474-0.392	c-3.844-3.122-6.22-7.885-6.157-13.097c0.009-0.7,0.383-1.345,0.986-1.7c0.44-0.26,0.96-0.336,1.444-0.229	c-0.814-1.428-1.435-3.002-1.824-4.668c-1.003-4.3-0.337-8.738,1.828-12.18c0.342-0.544,0.925-0.89,1.565-0.931	c0.647-0.045,1.263,0.229,1.672,0.726c6.62,8.049,16.162,13.199,26.481,14.374c-0.531-5.806,2.188-11.445,7.37-14.895	c5.866-3.906,14.744-4.517,20.889,1.548c2.684-0.629,5.267-1.665,7.692-3.087c0.717-0.418,1.616-0.354,2.264,0.166	c0.647,0.52,0.906,1.384,0.651,2.174c-0.434,1.343-1.033,2.615-1.779,3.791c0.356-0.14,0.709-0.287,1.059-0.442	c0.813-0.361,1.767-0.14,2.341,0.542c0.572,0.682,0.626,1.659,0.131,2.399c-1.915,2.863-4.244,5.352-6.937,7.41	c1.141,14.545-7.206,29.378-21.525,38.063C51.753,78.962,43.763,81.219,35.91,81.219z" opacity=".3"/><path fill="#0fd2ff" d="M35.911,80.214c-7.87,0-15.599-2.32-22.472-6.956c-0.457-0.309-0.578-0.931-0.27-1.389	c0.31-0.458,0.93-0.577,1.389-0.27c12.909,8.708,29.018,8.813,43.088,0.279c13.704-8.312,21.55-22.57,19.989-36.323	c-0.042-0.363,0.118-0.72,0.416-0.93c1.878-1.327,3.576-2.875,5.074-4.625c-1.771,0.549-3.608,0.941-5.495,1.174	c-0.464,0.063-0.915-0.221-1.068-0.669s0.029-0.941,0.436-1.184c2.084-1.236,3.785-2.98,4.954-5.045	c-2.285,1.07-4.677,1.849-7.139,2.323c-0.353,0.064-0.706-0.056-0.939-0.321c-5.013-5.688-12.744-5.263-17.794-1.902	c-4.9,3.262-7.116,8.892-5.646,14.341c0.083,0.31,0.014,0.64-0.188,0.889c-0.2,0.249-0.515,0.382-0.828,0.371	c-11.626-0.584-22.556-5.865-30.217-14.553c-1.197,2.564-1.485,5.652-0.779,8.678c0.828,3.55,2.903,6.567,5.692,8.279	c0.386,0.237,0.564,0.705,0.435,1.139s-0.522,0.74-0.988,0.714c-1.897-0.059-3.802-0.474-5.592-1.212	c0.625,5.866,5.023,10.758,10.965,11.938c0.453,0.09,0.786,0.479,0.805,0.94c0.019,0.461-0.281,0.876-0.726,1.002	c-1.675,0.475-3.566,0.646-5.392,0.511c2.185,4.717,6.929,7.852,12.268,7.956c0.424,0.009,0.797,0.283,0.93,0.686	c0.134,0.402-0.002,0.845-0.337,1.104c-3.611,2.801-7.872,4.794-12.321,5.765c-0.537,0.117-1.072-0.225-1.189-0.764	c-0.118-0.539,0.224-1.072,0.764-1.189c3.313-0.724,6.517-2.055,9.391-3.89C27.55,66,22.9,61.996,21.122,56.506	c-0.109-0.338-0.032-0.707,0.203-0.973c0.234-0.265,0.587-0.387,0.94-0.317c0.675,0.133,1.376,0.211,2.083,0.236	c-5.146-2.671-8.527-8.047-8.455-14.058c0.004-0.351,0.191-0.673,0.493-0.851c0.301-0.178,0.673-0.185,0.982-0.018	c0.895,0.484,1.836,0.871,2.8,1.153c-1.764-1.927-3.058-4.391-3.695-7.122c-0.942-4.041-0.323-8.203,1.7-11.419	c0.171-0.272,0.463-0.445,0.783-0.466c0.331-0.013,0.632,0.115,0.836,0.362c7.056,8.578,17.351,13.945,28.411,14.857	c-1.021-5.857,1.541-11.701,6.768-15.18c5.641-3.756,14.234-4.283,20.009,1.813c2.979-0.635,5.845-1.751,8.523-3.321	c0.358-0.212,0.808-0.178,1.132,0.082c0.323,0.26,0.453,0.692,0.326,1.087c-0.738,2.288-1.991,4.356-3.646,6.065	c1.478-0.387,2.908-0.887,4.28-1.494c0.407-0.179,0.885-0.07,1.171,0.271s0.313,0.829,0.065,1.199	c-1.957,2.926-4.359,5.446-7.149,7.501c1.366,14.343-6.824,29.076-21,37.674C51.398,78.008,43.587,80.214,35.911,80.214z"/></svg>